<?xml version="1.0" encoding="UTF-8" standalone="no"?>
<svg
   width="20"
   height="17"
   version="1.1"
   id="svg4"
   sodipodi:docname="icon-twitter.svg"
   inkscape:version="1.1 (c68e22c387, 2021-05-23)"
   xmlns:inkscape="http://www.inkscape.org/namespaces/inkscape"
   xmlns:sodipodi="http://sodipodi.sourceforge.net/DTD/sodipodi-0.dtd"
   xmlns="http://www.w3.org/2000/svg"
   xmlns:svg="http://www.w3.org/2000/svg">
  <defs
     id="defs8" />
  <sodipodi:namedview
     id="namedview6"
     pagecolor="#ffffff"
     bordercolor="#666666"
     borderopacity="1.0"
     inkscape:pageshadow="2"
     inkscape:pageopacity="0.0"
     inkscape:pagecheckerboard="0"
     showgrid="false"
     inkscape:zoom="7.7941177"
     inkscape:cx="17.384906"
     inkscape:cy="7.890566"
     inkscape:window-width="1366"
     inkscape:window-height="715"
     inkscape:window-x="1272"
     inkscape:window-y="253"
     inkscape:window-maximized="1"
     inkscape:current-layer="svg4" />
  <path
     fill="#FFF"
     d="M20 2.172a8.192 8.192 0 01-2.357.646 4.11 4.11 0 001.804-2.27 8.22 8.22 0 01-2.605.996A4.096 4.096 0 0013.847.248c-2.65 0-4.596 2.472-3.998 5.037A11.648 11.648 0 011.392 1a4.109 4.109 0 001.27 5.478 4.086 4.086 0 01-1.858-.513c-.045 1.9 1.318 3.679 3.291 4.075a4.113 4.113 0 01-1.853.07 4.106 4.106 0 003.833 2.849A8.25 8.25 0 010 14.658a11.616 11.616 0 006.29 1.843c7.618 0 11.922-6.434 11.663-12.205A8.354 8.354 0 0020 2.172z"
     id="path2"
     style="fill:#4e7ff6;fill-opacity:1" />
</svg>
